<?xml version="1.0" encoding="UTF-8" standalone="no"?>
<!-- Generator: Adobe Illustrator 19.1.0, SVG Export Plug-In . SVG Version: 6.00 Build 0)  -->

<svg
   xmlns:dc="http://purl.org/dc/elements/1.1/"
   xmlns:cc="http://creativecommons.org/ns#"
   xmlns:rdf="http://www.w3.org/1999/02/22-rdf-syntax-ns#"
   xmlns:svg="http://www.w3.org/2000/svg"
   xmlns="http://www.w3.org/2000/svg"
   xmlns:sodipodi="http://sodipodi.sourceforge.net/DTD/sodipodi-0.dtd"
   xmlns:inkscape="http://www.inkscape.org/namespaces/inkscape"
   version="1.1"
   id="Capa_1"
   x="0px"
   y="0px"
   viewBox="0 0 485.5 485.5"
   style="enable-background:new 0 0 485.5 485.5;"
   xml:space="preserve"
   sodipodi:docname="book.svg"
   inkscape:version="0.92.2 (5c3e80d, 2017-08-06)"><metadata
     id="metadata4730"><rdf:RDF><cc:Work
         rdf:about=""><dc:format>image/svg+xml</dc:format><dc:type
           rdf:resource="http://purl.org/dc/dcmitype/StillImage" /><dc:title></dc:title></cc:Work></rdf:RDF></metadata><defs
     id="defs4728" /><sodipodi:namedview
     pagecolor="#ffffff"
     bordercolor="#666666"
     borderopacity="1"
     objecttolerance="10"
     gridtolerance="10"
     guidetolerance="10"
     inkscape:pageopacity="0"
     inkscape:pageshadow="2"
     inkscape:window-width="3840"
     inkscape:window-height="2066"
     id="namedview4726"
     showgrid="false"
     inkscape:zoom="1.3748894"
     inkscape:cx="404.13413"
     inkscape:cy="20.215597"
     inkscape:window-x="-11"
     inkscape:window-y="-11"
     inkscape:window-maximized="1"
     inkscape:current-layer="layer5"
     showguides="false" /><g
     id="g4691"
     transform="matrix(-1,0,0,1,494.22797,0.36366562)"><path
       inkscape:connector-curvature="0"
       id="path4685"
       d="M 422.1,126.2 H 126.4 C 99,126.2 76.6,103.9 76.6,76.4 76.6,49 98.9,26.6 126.4,26.6 h 295.8 c 7.4,0 13.3,-6 13.3,-13.3 C 435.5,5.9 429.5,0 422.2,0 H 126.4 C 84.3,0 50,34.3 50,76.4 v 332.7 c 0,42.1 34.3,76.4 76.4,76.4 h 295.8 c 7.4,0 13.3,-6 13.3,-13.3 V 139.5 c -0.1,-7.3 -6,-13.3 -13.4,-13.3 z M 408.8,458.9 H 126.4 C 99,458.9 76.6,436.6 76.6,409.1 V 134.4 c 13.4,11.5 30.8,18.5 49.8,18.5 h 282.4 z" /></g><g
     inkscape:groupmode="layer"
     id="layer5"
     inkscape:label="kanji"
     style="display:inline"><text
       xml:space="preserve"
       style="font-style:normal;font-weight:normal;font-size:61.31658936px;line-height:1.25;font-family:sans-serif;letter-spacing:0px;word-spacing:0px;fill:#000000;fill-opacity:1;stroke:none;stroke-width:1.53291488"
       x="93.706314"
       y="421.11133"
       id="text3799"
       transform="scale(1.0280218,0.97274202)"
       inkscape:label="text3799"><tspan
         sodipodi:role="line"
         id="tspan3797"
         x="93.706314"
         y="421.11133"
         style="font-style:normal;font-variant:normal;font-weight:normal;font-stretch:normal;font-size:294.31964111px;font-family:sans-serif;-inkscape-font-specification:'sans-serif, Normal';font-variant-ligatures:normal;font-variant-caps:normal;font-variant-numeric:normal;font-feature-settings:normal;text-align:start;writing-mode:lr-tb;text-anchor:start;stroke-width:1.53291488">銀</tspan></text>
</g><g
     inkscape:groupmode="layer"
     id="layer6"
     inkscape:label="top"
     style="display:inline"><path
       inkscape:connector-curvature="0"
       id="path4687"
       d="m 350.14777,64.663666 c 6.72531,0 12.08738,6 12.08738,13.3 0,7.3 -5.45295,13.3 -12.08738,13.3 H 123.12328 c -6.72532,0 -12.08739,-6 -12.08739,-13.3 0,-7.3 5.45295,-13.3 12.08739,-13.3 z"
       style="stroke-width:0.95332325" /></g></svg>